<svg xmlns="http://www.w3.org/2000/svg" fill="#e31e1e" viewBox="0 0 411.2 208.3"><path d="M186 131h-8v16h8c8 0 11-2 11-8s-3-8-11-8zm-47-82c0-5-3-8-11-8h-10v15h10c8 0 11-3 11-7zm-11 22h-10v17h11c8 0 11-3 11-9 0-5-3-8-12-8zM377 0H75C63 0 51 7 45 17L5 87c-6 11-6 24 0 34l40 70c6 11 18 17 30 17h302c19 0 34-15 34-34V34c0-19-15-34-34-34zM48 126a22 22 0 110-44 22 22 0 010 44zM311 25h67v18h-23v61h-21V43h-23V25zm-39 48c-13-3-30-7-30-25 0-16 12-25 30-25 17 0 27 8 33 16l-14 12c-4-6-12-10-19-10-6 0-9 2-9 5 0 6 6 8 14 9 13 4 30 8 30 25 0 13-8 26-33 26-18 0-29-9-36-19l16-10c5 7 13 12 21 12 7 0 11-2 11-7s-6-7-14-9zm-97-48h56v18h-35v12h25v17h-25v15h37v17h-58V25zm-53 138h-8v22H96v-69h26c14 0 29 3 29 23 1 21-16 24-29 24zm10-59H97V25h33c13 0 29 2 29 19 0 12-7 17-15 18v1c10 1 17 6 17 19 0 17-16 22-29 22zm65 81l-13-24h-6v24h-18v-69h27c18 0 29 6 29 22 0 11-5 18-14 21l15 26h-20zm49 0h-18v-69h18v69zm43 1c-18 0-33-10-33-36 1-25 15-35 33-35 19 0 26 9 29 22l-18 5c-1-7-4-12-11-12-9 0-14 8-14 20 0 13 5 21 14 21 7 0 10-4 12-13l18 4c-3 14-11 24-30 24zm91-1h-51v-69h49v15h-31v12h22v14h-22v13h33v15zm-258-54h-8v18h8c9 0 11-4 11-9s-2-9-11-9z"/></svg>